IKResults
version=1
nRows=9
nColumns=63
inDegrees=yes

Units are S.I. units (second, meters, Newtons, ...)
If the header above contains a line with 'inDegrees', this indicates whether rotational values are in degrees (yes) or radians (no).

endheader
time	pelvis_tilt	pelvis_list	pelvis_rotation	pelvis_tx	pelvis_ty	pelvis_tz	hip_flexion_r	hip_adduction_r	hip_rotation_r	knee_angle_r	knee_angle_r_beta	ankle_angle_r	subtalar_angle_r	mtp_angle_r	hip_flexion_l	hip_adduction_l	hip_rotation_l	knee_angle_l	knee_angle_l_beta	ankle_angle_l	subtalar_angle_l	mtp_angle_l	L5_S1_Flex_Ext	L5_S1_Lat_Bending	L5_S1_axial_rotation	L4_L5_Flex_Ext	L4_L5_Lat_Bending	L4_L5_axial_rotation	L3_L4_Flex_Ext	L3_L4_Lat_Bending	L3_L4_axial_rotation	L2_L3_Flex_Ext	L2_L3_Lat_Bending	L2_L3_axial_rotation	L1_L2_Flex_Ext	L1_L2_Lat_Bending	L1_L2_axial_rotation	L1_T12_Flex_Ext	L1_T12_Lat_Bending	L1_T12_axial_rotation	Abs_r3	Abs_r2	Abs_r1	Abs_t1	Abs_t2	neck_flexion	neck_bending	neck_rotation	arm_flex_r	arm_add_r	arm_rot_r	elbow_flex_r	pro_sup_r	wrist_flex_r	wrist_dev_r	arm_flex_l	arm_add_l	arm_rot_l	elbow_flex_l	pro_sup_l	wrist_flex_l	wrist_dev_l
      2.03333333	     19.85658018	    -15.54485068	     71.18649816	     -0.15799855	      0.75195041	      0.13536030	      7.38895189	     -4.19679634	     18.77481964	     43.03668239	      0.75113181	      0.00000000	      0.00000000	      0.00000000	     -1.76616463	    -12.36012651	    -12.93850118	     67.36723799	      1.17578011	      0.00000000	      0.00000000	      0.00000000	     -5.65993057	      1.34869912	      0.05890956	    -10.51105707	      1.79376983	      0.06259141	     -9.29869994	      3.27922703	      0.06259141	     -6.46873465	      3.27922703	      0.05154587	     -5.25581153	      2.75026724	      0.04786402	     -3.23408433	      2.08913493	      0.04418217	    -40.42831810	     15.25675415	      0.32763732	      0.00000000	      0.00000000	     26.67810290	      6.19566866	      6.77238392	     39.30906848	    -11.76706217	     34.31638283	     37.24522506	     89.99559364	      0.00000000	      0.00000000	     58.52934603	     16.19395539	    -11.71516620	     53.62850858	     89.99559364	      0.00000000	      0.00000000
      2.06666667	     21.26185748	    -17.36154106	     68.43668580	     -0.17694160	      0.72237578	      0.10275482	      9.04128141	     -3.59679283	     22.74581945	     47.82907673	      0.83477487	      0.00000000	      0.00000000	      0.00000000	     -1.54509744	    -11.45152801	    -15.37651028	     72.27144109	      1.26137460	      0.00000000	      0.00000000	      0.00000000	     -5.95952402	      1.38581048	      0.34141662	    -11.06743205	      1.84312793	      0.36275516	     -9.79090201	      3.36945959	      0.36275516	     -6.81114000	      3.36945959	      0.29873954	     -5.53401400	      2.82594472	      0.27740100	     -3.40527202	      2.14662043	      0.25606246	    -42.56828409	     15.67656528	      1.89885680	      0.00000000	      0.00000000	     27.99992680	      6.35345156	     11.53616152	     41.90691113	     -9.20007231	     34.77233564	     37.00363457	     89.99559364	      0.00000000	      0.00000000	     58.22990228	     15.36106349	    -11.88603373	     53.71664577	     89.99559364	      0.00000000	      0.00000000
      2.10000000	     22.83169354	    -19.81354497	     65.88428285	     -0.19787929	      0.68995144	      0.06848761	     10.96340802	     -2.86829559	     26.34675786	     52.33826550	      0.91347506	      0.00000000	      0.00000000	      0.00000000	     -0.98028425	    -10.35530565	    -17.55791660	     76.58235617	      1.33661426	      0.00000000	      0.00000000	      0.00000000	     -6.19152914	      1.44735668	      0.64670282	    -11.49828876	      1.92498438	      0.68712174	    -10.17206322	      3.51910303	      0.68712174	     -7.07629865	      3.51910303	      0.56586496	     -5.74945396	      2.95144974	      0.52544604	     -3.53783975	      2.24195549	      0.48502711	    -44.22547348	     16.37278822	      3.59676705	      0.00000000	      0.00000000	     28.31637758	      6.71505285	     16.96875850	     44.06874349	     -6.80304996	     35.13676717	     36.77600718	     89.99559364	      0.00000000	      0.00000000	     57.92988440	     14.64876115	    -12.01594253	     53.77776886	     89.99559364	      0.00000000	      0.00000000
      2.13333333	     24.74117289	    -22.03641922	     63.21892786	     -0.22097134	      0.65681867	      0.03259934	     12.24893316	     -2.24383977	     29.96759099	     56.29430425	      0.98252096	      0.00000000	      0.00000000	      0.00000000	     -1.12879132	     -8.72036565	    -19.80101690	     79.72951140	      1.39154248	      0.00000000	      0.00000000	      0.00000000	     -6.53905965	      1.48284246	      0.99007040	    -12.14368767	      1.97218048	      1.05194980	    -10.74302109	      3.60538317	      1.05194980	     -7.47349127	      3.60538317	      0.86631160	     -6.07217079	      3.02381235	      0.80443220	     -3.73641868	      2.29692298	      0.74255280	    -46.70784915	     16.77421053	      5.50647456	      0.00000000	      0.00000000	     28.43096761	      7.57451032	     23.60479483	     46.28040348	     -4.67006578	     36.12625118	     36.87854760	     89.99559364	      0.00000000	      0.00000000	     47.35419401	     -8.32880863	    -15.89924246	     55.91214396	     89.99559364	      0.00000000	      0.00000000
      2.16666667	     27.13791481	    -24.15067127	     61.01813732	     -0.24655662	      0.62321586	     -0.00501749	     12.82522289	     -1.73695830	     33.25683146	     59.42635127	      1.03718549	      0.00000000	      0.00000000	      0.00000000	     -1.60997448	     -6.66427750	    -21.45875911	     81.73647360	      1.42657058	      0.00000000	      0.00000000	      0.00000000	     -6.98806488	      1.51077821	      1.29173619	    -12.97753528	      2.00933502	      1.37246970	    -11.48069178	      3.67330614	      1.37246970	     -7.98665935	      3.67330614	      1.13026917	     -6.48911704	      3.08077892	      1.04953565	     -3.99298027	      2.34019544	      0.96880214	    -49.91504860	     17.09022525	      7.18424917	      0.00000000	      0.00000000	     28.48460397	      9.05692837	     31.57644247	     48.36210831	     -2.60325541	     36.67736342	     37.26764627	     89.99559364	      0.00000000	      0.00000000	     47.15088763	     -8.63046726	    -15.91799544	     56.12838593	     89.99559364	      0.00000000	      0.00000000
      2.20000000	     30.22123942	    -26.10940779	     59.37987583	     -0.27419069	      0.58966184	     -0.04449008	     12.55630023	     -1.31448249	     36.22836182	     61.59621723	      1.07505680	      0.00000000	      0.00000000	      0.00000000	     -2.51887301	     -4.33765121	    -22.51001967	     82.50006392	      1.43989775	      0.00000000	      0.00000000	      0.00000000	     -7.53903202	      1.52079446	      1.55908021	    -14.00073637	      2.02265663	      1.65652273	    -12.38587571	      3.69765965	      1.65652273	     -8.61635970	      3.69765965	      1.36419519	     -7.00074514	      3.10120406	      1.26675267	     -4.30780290	      2.35571062	      1.16931016	    -53.85055184	     17.20353109	      8.67113643	      0.00000000	      0.00000000	     28.51339489	     10.95320888	     40.09061539	     50.35990786	     -0.78555954	     37.35509296	     38.04460238	     89.99559364	      0.00000000	      0.00000000	     46.69906497	     -9.37824074	    -15.98997257	     56.45576424	     89.99559364	      0.00000000	      0.00000000
      2.23333333	     33.75198173	    -28.81621273	     58.65116732	     -0.30261308	      0.55429220	     -0.08511357	     12.50170120	     -0.91143172	     38.18201251	     62.90209946	      1.09784874	      0.00000000	      0.00000000	      0.00000000	     -2.67436852	     -2.15856530	    -22.55567067	     82.58323707	      1.44134939	      0.00000000	      0.00000000	      0.00000000	     -7.92205082	      1.54653913	      1.86269080	    -14.71204058	      2.05689704	      1.97910898	    -13.01513729	      3.76025523	      1.97910898	     -9.05411188	      3.76025523	      1.62985445	     -7.35641639	      3.15370259	      1.51343628	     -4.52665984	      2.39558911	      1.39701810	    -56.58641681	     17.49475992	     10.35972745	      0.00000000	      0.00000000	     28.53021609	     11.71401110	     43.52447506	     51.20785626	      0.10155006	     37.28311392	     39.71244150	     89.99559364	      0.00000000	      0.00000000	     46.56555985	     -9.59110629	    -16.01104528	     56.55874968	     89.99559364	      0.00000000	      0.00000000
      2.26666667	     38.17389872	    -31.26601637	     58.94765056	     -0.33157146	      0.51926400	     -0.12713580	     11.56546910	     -0.69229964	     39.21879326	     63.11202918	      1.10151271	      0.00000000	      0.00000000	      0.00000000	     -3.38850810	     -0.15549452	    -21.97262479	     81.59424215	      1.42408818	      0.00000000	      0.00000000	      0.00000000	     -8.30942320	      1.56873725	      2.13529923	    -15.43142983	      2.08642055	      2.26875543	    -13.65155138	      3.81422775	      2.26875543	     -9.49683978	      3.81422775	      1.86838683	     -7.71613039	      3.19896900	      1.73493062	     -4.74800442	      2.42997400	      1.60147442	    -59.35337900	     17.74586954	     11.87589373	      0.00000000	      0.00000000	     28.54164577	     11.98326771	     44.16491891	     51.67787755	      0.60336475	     37.03982959	     41.29683105	     89.99559364	      0.00000000	      0.00000000	     46.33153744	     -9.92366292	    -16.04216711	     56.72475991	     89.99559364	      0.00000000	      0.00000000
      2.30000000	     43.06537678	    -34.12675917	     60.09567791	     -0.36026245	      0.48428395	     -0.16899463	     10.79631645	     -0.53829518	     39.50137958	     62.25778201	      1.08660328	      0.00000000	      0.00000000	      0.00000000	     -3.59815710	      1.44040452	    -20.87218839	     79.96700728	      1.39568757	      0.00000000	      0.00000000	      0.00000000	     -8.57414385	      1.59503681	      2.37459633	    -15.92304254	      2.12139895	      2.52300861	    -14.08646093	      3.87817249	      2.52300861	     -9.79938900	      3.87817249	      2.07777179	     -7.96194998	      3.25259906	      1.92935952	     -4.89926579	      2.47071201	      1.78094725	    -61.24425209	     18.04337536	     13.20679243	      0.00000000	      0.00000000	     28.54553007	     12.11198135	     44.33423451	     51.48806119	      0.67102599	     36.51716340	     43.27417656	     89.99559364	      0.00000000	      0.00000000	     46.21758757	    -10.05964044	    -16.05293306	     56.81799228	     89.99559364	      0.00000000	      0.00000000
